<svg width="123" height="30" viewBox="0 0 123 30" fill="none" xmlns="http://www.w3.org/2000/svg">
<path opacity="0.3" d="M24.9964 22.5946L11.3735 14.9898L0 21.8025L12.7066 30.0001L24.9964 22.5946Z" fill="white"/>
<path d="M24.5486 7.12594L12.779 0L0.0957031 8.25449V21.8023L24.5486 7.12594Z" fill="white"/>
<path d="M32.798 20.168C31.6807 19.58 30.7474 18.6951 30.1008 17.6106C29.4399 16.4923 29.1005 15.2132 29.1198 13.9144C29.1014 12.6172 29.4408 11.3401 30.1008 10.2233C30.7488 9.14001 31.6818 8.25542 32.798 7.6659C33.9854 7.04134 35.3106 6.72452 36.6521 6.74442C37.7712 6.72786 38.8816 6.94289 39.9135 7.376C40.8603 7.77868 41.6985 8.39954 42.3596 9.18789L40.2889 11.0904C39.8668 10.5746 39.3339 10.1607 38.7299 9.87924C38.1258 9.59782 37.466 9.45618 36.7997 9.46485C35.9976 9.45102 35.2056 9.64544 34.5011 10.0291C33.8385 10.3967 33.2924 10.9429 32.9248 11.6055C32.5411 12.31 32.3467 13.1019 32.3605 13.904C32.3467 14.7061 32.5411 15.498 32.9248 16.2025C33.2909 16.8663 33.8374 17.4128 34.5011 17.7789C35.2049 18.1646 35.9972 18.36 36.7997 18.3457C37.4681 18.3544 38.1297 18.2107 38.7343 17.9254C39.3389 17.6402 39.8705 17.2209 40.2889 16.6995L42.3596 18.602C41.7029 19.407 40.8597 20.0396 39.9032 20.445C38.8692 20.8852 37.7552 21.1065 36.6314 21.0947C35.296 21.113 33.9775 20.7943 32.798 20.168Z" fill="white"/>
<path d="M54.3829 11.2218C55.1923 12.0139 55.5978 13.1899 55.5995 14.7498V20.8533H52.5089V15.2261C52.5089 14.3797 52.3226 13.7481 51.955 13.3314C51.7487 13.1166 51.4979 12.9495 51.2203 12.8418C50.9426 12.734 50.6448 12.6882 50.3476 12.7076C50.0035 12.6911 49.6598 12.7471 49.3388 12.872C49.0177 12.9968 48.7265 13.1877 48.4839 13.4323C48.0232 13.9138 47.7902 14.6308 47.7902 15.5807V20.8533H44.6996V6.1485H47.7902V11.2995C48.213 10.8829 48.7206 10.5624 49.2786 10.3599C49.8877 10.1364 50.5323 10.0251 51.1811 10.0311C52.5012 10.0311 53.5685 10.428 54.3829 11.2218Z" fill="white"/>
<path d="M69.2974 16.3894H61.2293C61.3618 17.021 61.7326 17.5773 62.2647 17.9425C62.861 18.3426 63.5686 18.5438 64.2863 18.5171C64.7899 18.5269 65.2909 18.4435 65.7642 18.2712C66.2118 18.0955 66.6194 17.8314 66.9627 17.4947L68.5934 19.2807C67.5891 20.4317 66.1223 21.0072 64.1931 21.0072C63.093 21.0314 62.0028 20.7945 61.0119 20.316C60.1272 19.8824 59.3846 19.2054 58.8713 18.3644C58.3604 17.5037 58.0996 16.5178 58.118 15.5171C58.1047 14.525 58.3615 13.5479 58.8609 12.6905C59.3476 11.8632 60.0547 11.1875 60.9032 10.7389C61.7894 10.2811 62.7716 10.0399 63.769 10.0349C64.7665 10.03 65.751 10.2615 66.6417 10.7104C67.4767 11.1498 68.1677 11.8201 68.6322 12.6414C69.1293 13.5346 69.3795 14.5442 69.357 15.5663C69.3699 15.5973 69.3363 15.8743 69.2974 16.3894ZM62.0499 12.9623C61.5646 13.3748 61.253 13.9554 61.1776 14.5879H66.4295C66.3496 13.9598 66.0386 13.3839 65.5572 12.9727C65.0692 12.5644 64.4486 12.349 63.8126 12.367C63.1768 12.3493 62.5558 12.5606 62.0628 12.9623H62.0499Z" fill="white"/>
<path d="M73.9047 20.3156C73.0301 19.8752 72.2959 19.1992 71.7848 18.3639C71.2671 17.5057 71.0024 16.5187 71.0212 15.5167C71.0027 14.5146 71.2674 13.5277 71.7848 12.6694C72.2988 11.8417 73.0328 11.1732 73.9047 10.7384C74.8534 10.2593 75.9042 10.0177 76.9668 10.0344C77.9922 10.011 79.0061 10.2535 79.9099 10.7384C80.7286 11.1856 81.3746 11.8935 81.745 12.7496L79.3456 14.0439C78.7917 13.0654 77.9918 12.5762 76.9461 12.5762C76.576 12.5653 76.2076 12.6301 75.8636 12.7668C75.5195 12.9034 75.207 13.109 74.9453 13.3709C74.6737 13.6587 74.4634 13.9986 74.3272 14.3702C74.1911 14.7417 74.1319 15.1371 74.1532 15.5322C74.1321 15.9269 74.1914 16.3218 74.3275 16.6929C74.4637 17.064 74.6739 17.4036 74.9453 17.691C75.2071 17.9525 75.5197 18.1577 75.8638 18.2939C76.2079 18.4301 76.5762 18.4945 76.9461 18.483C77.4447 18.4959 77.9364 18.3645 78.3621 18.1046C78.7878 17.8447 79.1293 17.4674 79.3456 17.018L81.745 18.3251C81.3645 19.1675 80.7204 19.8634 79.9099 20.3078C79.0084 20.7999 77.9935 21.0462 76.9668 21.0223C75.904 21.0381 74.8531 20.7956 73.9047 20.3156Z" fill="white"/>
<path d="M88.4233 16.673L86.9375 18.1381V20.8533H83.8444V6.1485H86.9375V14.4729L91.4569 10.1916H95.1428L90.7037 14.711L95.5389 20.8533H91.7934L88.4233 16.673Z" fill="white"/>
<path d="M97.4024 8.20648C97.2332 8.04948 97.0983 7.85925 97.006 7.64769C96.9137 7.43613 96.866 7.2078 96.866 6.97698C96.866 6.74616 96.9137 6.51783 97.006 6.30627C97.0983 6.09471 97.2332 5.90448 97.4024 5.74748C97.7834 5.40924 98.2808 5.23201 98.7898 5.25309C99.294 5.23258 99.7875 5.40261 100.172 5.72936C100.344 5.87525 100.481 6.05754 100.574 6.26304C100.666 6.46853 100.712 6.69207 100.708 6.91745C100.715 7.15641 100.67 7.39406 100.578 7.61454C100.485 7.83503 100.347 8.03329 100.172 8.19613C99.7817 8.51893 99.2911 8.69553 98.7846 8.69553C98.2782 8.69553 97.7875 8.51893 97.3972 8.19613L97.4024 8.20648ZM97.2445 10.1892H100.335V20.8509H97.2445V10.1892Z" fill="white"/>
<path d="M106.995 10.4299H109.731V12.8138H107.076V20.8535H103.982V12.8138H102.339V10.4299H103.982V9.96654C103.982 8.74998 104.342 7.78536 105.062 7.07268C105.781 6.36 106.796 6.0028 108.106 6.00107C108.549 5.99848 108.992 6.04888 109.423 6.1512C109.791 6.23088 110.141 6.37457 110.459 6.5757L109.646 8.81728C109.28 8.56291 108.844 8.43064 108.398 8.43937C107.459 8.43937 106.99 8.95705 106.99 9.99242L106.995 10.4299Z" fill="white"/>
<path d="M122.456 10.1905L117.639 21.5071C117.149 22.7374 116.545 23.6002 115.827 24.0955C115.058 24.6123 114.147 24.8757 113.22 24.8487C112.662 24.8473 112.108 24.76 111.577 24.5899C111.089 24.447 110.637 24.2036 110.249 23.8755L111.377 21.6753C111.619 21.889 111.898 22.0566 112.201 22.1697C112.494 22.2854 112.806 22.346 113.122 22.3483C113.492 22.3666 113.857 22.2589 114.157 22.0429C114.475 21.7603 114.721 21.4051 114.872 21.0075L114.911 20.9091L110.293 10.1672H113.477L116.479 17.4251L119.482 10.1905H122.456Z" fill="white"/>
</svg>
