<svg width="113" height="32" viewBox="0 0 113 32" fill="none" xmlns="http://www.w3.org/2000/svg">
<g clip-path="url(#clip0)">
<path d="M24.3283 6.0608C24.3065 5.90185 24.1676 5.81367 24.0524 5.80407C23.938 5.79447 21.6973 5.76042 21.6973 5.76042C21.6973 5.76042 19.8233 3.94059 19.6381 3.75546C19.4531 3.57034 19.0915 3.62622 18.9509 3.66814C18.9492 3.66902 18.599 3.7773 18.0096 3.9598C17.9109 3.6402 17.7659 3.24724 17.559 2.85254C16.8919 1.57936 15.9147 0.906098 14.7341 0.904357C14.7323 0.904357 14.7314 0.904357 14.7297 0.904357C14.6476 0.904357 14.5664 0.912215 14.4844 0.919197C14.4494 0.877283 14.4145 0.836244 14.3778 0.796071C13.8634 0.245936 13.2042 -0.0221472 12.4139 0.0014301C10.8892 0.0450918 9.3707 1.14624 8.13943 3.10228C7.27318 4.4785 6.61387 6.20753 6.42702 7.54618C4.67617 8.08845 3.45189 8.46741 3.42482 8.47617C2.54111 8.75384 2.51317 8.78091 2.3979 9.61401C2.31233 10.2436 0 28.124 0 28.124L19.3779 31.4754L27.7767 29.3875C27.7767 29.3875 24.3501 6.21975 24.3283 6.0608ZM17.0394 4.26019C16.5932 4.39816 16.0858 4.55535 15.5357 4.72563C15.5244 3.95369 15.4327 2.87961 15.0729 1.95136C16.2299 2.17054 16.7993 3.47952 17.0394 4.26019ZM14.5219 5.03999C13.5063 5.35433 12.3982 5.69752 11.2866 6.0416C11.5992 4.84439 12.1921 3.65242 12.9204 2.87088C13.1911 2.58009 13.57 2.25612 14.0189 2.07099C14.4407 2.95121 14.5324 4.19732 14.5219 5.03999ZM12.4444 1.01613C12.8025 1.00827 13.1037 1.08686 13.3614 1.25627C12.9492 1.47021 12.551 1.77759 12.1773 2.1784C11.2088 3.21755 10.4666 4.83042 10.1705 6.38652C9.24753 6.67205 8.3446 6.95239 7.51328 7.20913C8.03814 4.75969 10.0911 1.08424 12.4444 1.01613Z" fill="#95BF47"/>
<path d="M24.0531 5.80508C23.9388 5.79548 21.698 5.76143 21.698 5.76143C21.698 5.76143 19.8241 3.9416 19.639 3.75647C19.57 3.68748 19.4766 3.65168 19.3787 3.63684L19.3796 31.4747L27.7775 29.3877C27.7775 29.3877 24.3509 6.22076 24.3291 6.06181C24.3072 5.90286 24.1675 5.81468 24.0531 5.80508Z" fill="#5E8E3E"/>
<path d="M14.7236 10.1232L13.7482 13.7724C13.7482 13.7724 12.6602 13.2773 11.3704 13.3585C9.47896 13.4782 9.45887 14.671 9.47812 14.9706C9.58115 16.6026 13.8748 16.9589 14.1159 20.7819C14.3054 23.7893 12.5204 25.8467 9.94879 26.0091C6.86189 26.2038 5.16258 24.3831 5.16258 24.3831L5.81664 21.601C5.81664 21.601 7.52728 22.8917 8.89651 22.8052C9.79073 22.7484 10.1103 22.021 10.078 21.5067C9.94354 19.3777 6.44709 19.5035 6.22619 16.0053C6.04017 13.0617 7.97355 10.0787 12.2393 9.80974C13.8827 9.70409 14.7236 10.1232 14.7236 10.1232Z" fill="white"/>
<path d="M38.8366 17.7645C37.8709 17.2405 37.3746 16.7988 37.3746 16.1916C37.3746 15.4191 38.064 14.9228 39.1406 14.9228C40.3939 14.9228 41.5129 15.4468 41.5129 15.4468L42.3955 12.7428C42.3955 12.7428 41.5839 12.1079 39.1952 12.1079C35.871 12.1079 33.5672 14.0116 33.5672 16.6879C33.5672 18.2053 34.6429 19.3642 36.078 20.1913C37.2369 20.853 37.6509 21.3225 37.6509 22.0119C37.6509 22.7291 37.0715 23.3085 35.9958 23.3085C34.3926 23.3085 32.8786 22.4805 32.8786 22.4805L31.9406 25.1845C31.9406 25.1845 33.3394 26.1225 35.6926 26.1225C39.1138 26.1225 41.5692 24.4396 41.5692 21.4047C41.5683 19.7782 40.3272 18.6193 38.8366 17.7645Z" fill="black"/>
<path d="M52.466 12.0811C50.783 12.0811 49.4587 12.8814 48.4384 14.0948L48.383 14.0671L49.845 6.42535H46.0375L42.341 25.8748H46.1484L47.4173 19.2265C47.9135 16.7157 49.2101 15.1714 50.4244 15.1714C51.2792 15.1714 51.611 15.7508 51.611 16.5788C51.611 17.1028 51.5555 17.7377 51.4455 18.2617L50.0113 25.8757H53.8189L55.3082 18.0131C55.474 17.1851 55.5847 16.1925 55.5847 15.5299C55.5831 13.3776 54.4521 12.0811 52.466 12.0811Z" fill="black"/>
<path d="M64.1906 12.0812C59.6104 12.0812 56.5767 16.2195 56.5767 20.8264C56.5767 23.7781 58.397 26.1504 61.8184 26.1504C66.3151 26.1504 69.3499 22.1229 69.3499 17.4052C69.3499 14.6743 67.7494 12.0812 64.1906 12.0812ZM62.3146 23.2272C61.0178 23.2272 60.466 22.1238 60.466 20.744C60.466 18.5649 61.5975 15.0061 63.6665 15.0061C65.0184 15.0061 65.459 16.1649 65.459 17.2961C65.459 19.6406 64.329 23.2272 62.3146 23.2272Z" fill="black"/>
<path d="M79.0883 12.0812C76.5183 12.0812 75.06 14.3435 75.06 14.3435H75.0054L75.2263 12.302H71.8605C71.6953 13.6818 71.391 15.7778 71.0883 17.3506L68.4396 31.2821H72.2471L73.2947 25.6541H73.3781C73.3781 25.6541 74.1593 26.1504 75.6129 26.1504C80.0819 26.1504 83.006 21.5712 83.006 16.9358C83.006 14.3712 81.8744 12.0812 79.0883 12.0812ZM75.4466 23.2818C74.4583 23.2818 73.8734 22.73 73.8734 22.73L74.5081 19.1712C74.9498 16.7989 76.191 15.226 77.5156 15.226C78.6744 15.226 79.0327 16.3018 79.0327 17.3229C79.0327 19.7783 77.5707 23.2818 75.4466 23.2818Z" fill="black"/>
<path d="M88.4407 6.61847C87.2273 6.61847 86.2616 7.58419 86.2616 8.82532C86.2616 9.95649 86.9787 10.7291 88.0546 10.7291H88.1097C89.2963 10.7291 90.3166 9.92874 90.3444 8.52221C90.3444 7.41873 89.5995 6.61847 88.4407 6.61847Z" fill="black"/>
<path d="M83.1166 25.8747H86.923L89.5171 12.385H85.6818L83.1166 25.8747Z" fill="black"/>
<path d="M99.2005 12.3575H96.5519L96.6893 11.7227C96.9101 10.4261 97.6829 9.2672 98.9519 9.2672C99.6291 9.2672 100.165 9.46036 100.165 9.46036L100.91 6.48094C100.91 6.48094 100.248 6.15009 98.8406 6.15009C97.4888 6.15009 96.1379 6.53634 95.1166 7.41891C93.8198 8.52239 93.2128 10.1221 92.9096 11.7227L92.8 12.3575H91.0337L90.4818 15.227H92.2481L90.2342 25.8758H94.0417L96.0556 15.227H98.6764L99.2005 12.3575Z" fill="black"/>
<path d="M108.359 12.3851C108.359 12.3851 105.979 18.3812 104.911 21.6543H104.855C104.783 20.6002 103.917 12.3851 103.917 12.3851H99.9166L102.208 24.7714C102.263 25.0468 102.235 25.2131 102.125 25.4062C101.682 26.2611 100.938 27.0891 100.055 27.6963C99.338 28.2202 98.538 28.5511 97.9038 28.7719L98.9519 32C99.7246 31.8346 101.324 31.1997 102.676 29.9308C104.414 28.3034 106.014 25.7925 107.669 22.3714L112.332 12.3842H108.359V12.3851Z" fill="black"/>
</g>
<defs>
<clipPath id="clip0">
<rect width="112.787" height="32" fill="white"/>
</clipPath>
</defs>
</svg>
